<svg viewBox="0 0 24 24" xmlns="http://www.w3.org/2000/svg">
  <path d="M12 .297c-6.63 0-12 5.373-12 12 0 5.303 3.438 9.8 8.205 11.385.6.113.82-.258.82-.577 0-.285-.01-1.04-.015-2.04-3.338.724-4.042-1.61-4.042-1.61-.546-1.387-1.333-1.756-1.333-1.756-1.09-.745.08-.73.08-.73 1.205.085 1.838 1.238 1.838 1.238 1.07 1.835 2.809 1.305 3.49.997.108-.775.418-1.305.762-1.605-2.665-.3-5.466-1.33-5.466-5.93 0-1.31.465-2.38 1.235-3.22-.135-.303-.54-1.523.13-3.18 0 0 1.005-.322 3.3 1.23.955-.265 1.98-.397 3.003-.402 1.02.005 2.045.138 3.005.402 2.28-1.552 3.285-1.23 3.285-1.23.67 1.657.262 2.877.137 3.18.77.84 1.235 1.91 1.235 3.22 0 4.61-2.805 5.625-5.475 5.92.42.36.81 1.096.81 2.22 0 1.606-.015 2.896-.015 3.286 0 .315.21.69.825.57C20.565 22.092 24 17.592 24 12.297c0-6.627-5.373-12-12-12z"/>
</svg>